<?xml version="1.0" standalone="no"?>
<!DOCTYPE svg PUBLIC "-//W3C//DTD SVG 20010904//EN"
 "http://www.w3.org/TR/2001/REC-SVG-20010904/DTD/svg10.dtd">
<svg version="1.0" xmlns="http://www.w3.org/2000/svg"
 width="512.000000pt" height="512.000000pt" viewBox="0 0 512.000000 512.000000"
 preserveAspectRatio="xMidYMid meet">
<metadata>
Created by potrace 1.14, written by Peter Selinger 2001-2017
</metadata>
<g transform="translate(0.000000,512.000000) scale(0.100000,-0.100000)"
fill="#000000" stroke="none">
<path d="M0 2560 l0 -2560 2560 0 2560 0 0 2560 0 2560 -2560 0 -2560 0 0
-2560z m1807 1927 c218 -75 378 -249 445 -484 18 -64 22 -103 22 -218 0 -164
-19 -248 -87 -379 -53 -103 -171 -224 -422 -431 -203 -169 -298 -261 -395
-386 -268 -347 -307 -654 -108 -866 59 -62 154 -128 243 -167 32 -15 59 -25
60 -24 1 2 9 41 19 88 42 200 147 449 266 628 70 106 213 260 309 333 89 67
228 134 331 159 184 43 387 25 930 -85 477 -96 619 -115 717 -95 107 22 188
71 372 228 63 53 104 66 115 36 11 -29 6 -208 -9 -331 -57 -463 -230 -907
-484 -1243 -88 -116 -277 -302 -386 -379 -114 -80 -272 -160 -398 -200 -182
-58 -213 -60 -887 -63 -689 -3 -725 0 -925 66 -454 152 -802 540 -911 1016
-62 269 -33 563 81 830 126 294 347 548 725 832 224 168 340 267 357 306 37
82 -4 197 -90 255 -58 40 -124 61 -160 52 -19 -5 -27 -18 -41 -68 -29 -102
-92 -211 -173 -297 -71 -75 -153 -139 -206 -159 -24 -9 -24 -9 -14 19 22 59
-27 100 -120 100 -23 0 -47 13 -92 51 -34 28 -73 52 -86 53 -14 0 -25 4 -25 7
0 30 64 190 122 304 98 193 127 237 227 335 98 97 201 157 323 191 101 27 253
21 355 -14z m-981 -937 c42 -37 65 -50 88 -50 47 0 101 -18 121 -40 23 -26 13
-64 -26 -101 -66 -62 -410 -209 -488 -209 -47 0 -40 24 30 96 49 52 73 90 130
209 38 80 74 145 79 145 5 0 35 -22 66 -50z"/>
<path d="M1085 3823 c10 -50 8 -85 -7 -94 -14 -9 -56 6 -81 28 -9 9 -20 13
-24 10 -12 -13 20 -56 55 -73 32 -15 38 -15 68 -1 25 12 35 25 40 52 10 57
-11 115 -43 115 -12 0 -14 -8 -8 -37z"/>
</g>
</svg>
