
<svg xmlns="http://www.w3.org/2000/svg" width="1000" height="116" fill="none"><path fill="#004b5e" d="M805.6 49.8S779.7 35 784.6 28c5.1-6.8 21 21.8 21 21.8Zm-.4-.9s-7-29 1.3-30.1c8.4-1.2-1.3 30.1-1.3 30.1Z"/><path fill="#004b5e" d="M805.2 49.6s15.5-25.5 22.1-20.4c6.7 5-22.1 20.4-22.1 20.4Z"/><path fill="#004b5e" d="M804.7 47.7s-2.7 17-.6 30.4c2.3 13.3 8.2 23.6 13.4 26 5 2.3 11 .1 11 .1l-2.2-2.5s-7.4 2.4-14-7.5c-6.7-9.7-7.8-30.6-6.7-39.2 1-8.4 1.3-9-1-7.3ZM630.7 71s-29.4-5.8-26.8-13.8C606.4 49 630.5 71 630.5 71m-.5-.6s-16-25.4-8.4-29c7.6-3.8 8.4 29 8.4 29Z"/><path fill="#004b5e" d="M630.1 71s6.4-29.2 14.4-26.5c8 2.7-14.4 26.5-14.4 26.5Z"/><path fill="#004b5e" d="M629 69.4s3 17 9.4 29 13.5 16 19 16.5 12.2.4 12.2.4l-3-4s-6 7-15.5-.3c-9.4-7-17.4-26.6-19-34.9-1.6-8.4-1.6-9-3.2-6.7M147.6 49.7s-25.9-15-21-21.7c5.1-6.8 21 21.7 21 21.7Zm-.4-.8s-7-29 1.3-30.1c8.4-1.2-1.3 30.1-1.3 30.1Z"/><path fill="#004b5e" d="M147 49.6S162.8 24 169.4 29c6.7 5.1-22.2 20.4-22.2 20.4"/><path fill="#004b5e" d="M146.7 47.7s-2.7 17-.6 30.4c2.2 13.3 8 23.6 13.4 26a16 16 0 0 0 10.9 0l-2.1-2.4s-7.4 2.4-14-7.5c-6.7-9.7-7.9-30.8-6.7-39.2 1-8.4 1.3-9-1-7.3Zm121.6 24S246.4 59 250.5 53c4.3-5.7 17.8 18.7 17.8 18.7Zm-.3-.8s-6-24.7 1.2-25.6c7-1-1.3 25.6-1.3 25.6"/><path fill="#004b5e" d="M268 71.4s13-21.6 18.8-17.3c5.7 4.4-18.8 17.3-18.8 17.3Z"/><path fill="#004b5e" d="M285.7 114s-6 3.8-11.7-4.6c-5.7-8.2-6.7-26-5.7-33.3.9-7 1.2-7.7-.7-6.3 0 0-2.4 14.6-.5 26 1.8 11.2 4 18 8.5 20m-226-85.4s-11-27.9-3-30.3c8-2.3 3 30 3 30m.3-.8s12.4-27 19.7-22.8c7.2 4.3-19.7 22.8-19.7 22.8Z"/><path fill="#004b5e" d="M49.3 29.8s28-10.6 30.2-2.4c2.1 8.3-30 2.4-30 2.4"/><path fill="#004b5e" d="M50.3 28.1S37.6 39.8 31 51.7c-6.7 12-8.3 23.6-5.6 28.7 2.6 5 8.5 7 8.5 7l-.1-3.4s-7.2-2.7-6.4-14.6c.8-11.8 12.8-29 18.9-34.9 6-6 6.7-6.4 3.9-6.4Zm856.9 16s-16-25.3-8.4-29c7.6-3.8 8.4 29 8.4 29Zm0-1s7.5-29 15.2-26c8 2.9-15.2 26-15.2 26Z"/><path fill="#004b5e" d="M907 43.7s25.4-15.5 29-7.7c3.6 7.6-29 7.7-29 7.7Z"/><path fill="#004b5e" d="M907.3 41.8s-10.2 14-14.6 26.7c-4.2 13-3.8 24.8-.3 29.2a17 17 0 0 0 9.7 5.3l-.8-3.3s-7.4-1.3-8.9-13c-1.3-12 7.5-31 12.3-38 4.9-6.9 5.4-7.4 2.6-6.9ZM202 93.8c0-7 1.7-14.6 3.6-21l-3.6 21Zm-10.7 6.8c0-2.2.3-4.5.4-6.6v4.4c0 .8-.2 1.4-.5 2.2M179.7 85l1.4-17.6.2 11.7-1.6 6ZM136.8 105c-.8 1.4-1.6 2.3-2.4 3.2l-.5.7c1.3-3.3 2.9-7.7 4.4-12.5l-1.5 8.6Zm174.7-22.5a30.6 30.6 0 0 0-4 5l.6-12.6-6 22.7a83.9 83.9 0 0 0-3.3 10.2l.7-9.2c2.5-12 7.4-22.6 7.4-22.6-5.6 5-9.3 13.3-11.8 21.6-.3-3.4-1.2-6.4-2.8-9 0 0-.3 4-1.1 9.8l-.4-4.3 1-16-2 7.2-1.5-13.9.4 18.3-4.8 18.3c.7-5.1 1.7-10.2 2.9-15.2-3 1.3-5.3 5.3-7.2 10.6l1.3-20-5 18.6c.1-5.2-.7-10-3.1-13.9 0 0-.5 9.3-2.7 19.7 0-10.9-.2-19.3-.2-19.3l-3 16c.2-4-.2-7.9-1.4-11l2.1-21.7-3.6 18.7-.1.7-2.4 12.4c.8-6.3.2-13-3.6-17.6 0 0 0 8.5-1.6 17.3l-.7-15.5-2.8 13.1c-.1-3.8-1.5-7.4-3.9-10.4 0 0 0 6.1-.9 13.3l-1.9-19a359 359 0 0 0-2.4 16c0-.8 0-1.6-.2-2.4 1.7-18.7 2.9-39.5 2.9-39.5-.7 2-4.5 16.5-8.3 31.2l-.6-3.2-.4 7-.3 1.4 1.6-24c-.5 1.3-2.7 9.2-5 18.8.6-6.7 0-13-3-17.6 0 0-.4 8.8-2.4 18.8 1.3-15.2 2-29.3 2-29.3L222 92a140 140 0 0 1 3-15.3c-3 1.4-5.3 5.3-7.1 10.6l1.3-20c-.8 2.6-7 26-11.5 44 .4-15.8 0-36-.1-44.4 1.7-5 3.3-8.5 3.3-8.5-5.1 5.3-8.9 11.8-10.9 19l.8-13.4-6.1 22.8-.7-6.4c1.5-5.2 3.4-10.3 5.6-15.3a32.7 32.7 0 0 0-6.4 8.2l-2.3-20.6.6 24.2a88.3 88.3 0 0 0-3.8 10c-.2-3.4-1.2-6.5-2.8-9.2 0 0-.2 4-1 10l-.4-4.2 1-16.2-2 7.2-1.3-10.6 1-13.5c-.7 2.3-5.5 20-9.7 36.4 1.1-13.2 1.6-24.1 1.6-24.1-.4 1.3-2.6 9.3-5 19 .6-6.8.1-13-2.8-17.7 0 0-.6 8.8-2.4 18.8 1.2-15.3 2-29.3 2-29.3-2.9 10-5.5 20-8 30 1.3-9 2.9-15.2 2.9-15.2-3 1.3-5.3 5.3-7.2 10.6l1.3-20-5 18.6c.1-5.2-.7-10.2-3.1-13.9 0 0-.5 9.3-2.7 19.7 0-10.9-.2-19.3-.2-19.3l-3 15.9c.3-5.4-.5-10.3-3-14 0 0-.3 6.2-1.6 14.4-.4-3.5-1.5-6.8-3.8-9.6 0 0 .2 9.8-2 19.3-.2-13.3-.9-26.7-.9-26.7l-2.8 13.1c-.3-4-1.3-7.6-3.9-10.5 0 0 0 6.2-.9 13.4l-1.9-19c-.2 1.2-1.3 7.8-2.4 16a18 18 0 0 0-3.8-10.8l-.3 7.6-2.1-10.7c-.2 1.7-.7 14.7-1 27.2l-.8 2.5c.6-14.4.6-29.8.6-29.8l-2.3 8a16 16 0 0 0-2.7-5.4s0 10.4-2.2 20.3c.7-9 1.3-18.1 1.8-27.2l-3.8 14.1a18 18 0 0 0-3.8-9.3s.3 17-4.8 28.1c1.8-19 3-41.2 3-41.2l-7.8 29.4.3-7.5c-.4 1.5-2.7 9.3-5 19 .6-6.6 0-12.9-2.9-17.5 0 0-.4 7.7-2.1 17v-.9l1.7-26.7L76.3 75l-.8-7.4.2 9.8-4 15.2c1.4-8.9 3-15.3 3-15.3-3.1 1.5-5.4 5.3-7.2 10.7l1.3-20a132 132 0 0 1 5.6-15.5c-9 8.1-13 24.5-15 36.3l-.2-2.7c1.6-18.1 2.7-37.3 2.7-37.3-.6 1.3-2.4 8.6-4.8 17.7l-1.4-10.7.4 14.3-4 15c1.1-13 1.6-24 1.6-24l-4 14.5-2.2-21.4.5 12.2c-.4-1.4-1-2.8-1.9-4 0 0-.4 8.6-2.4 18.6 1.4-15.2 2-29.2 2-29.2l-8 30c.7-5.2 1.6-10.3 2.8-15.4-1 .6-1.8 1.3-2.6 2.1C39 53.8 39.7 41 39.7 41c-.5 1.4-2.6 9.4-5.2 19.2l.2-3.2-1.8 6.4v-7.6l-1 11.5-1.4 5.5 1.2-19.4c-.5 1.4-2.6 9.4-5 19 .6-6.7 0-13-3-17.6 0 0-.4 8.8-2.4 18.8 1.4-15.4 2-29.4 2-29.4-2.8 10-5.4 20-8 30 .8-5 1.8-10.1 3.1-15.2a9.3 9.3 0 0 0-3.2 2.6l2.5-15.4-4.9 19.5-1.6 4 1.3-20.1L8 66a109 109 0 0 1 9-33A48 48 0 0 0 5 55.4C5.8 43.6 8.8 32 13.6 21 8.3 26.1 4.4 34.4 2.1 42.5L2 34.8 0 44.9v70.8h39.6c.5-2.7 1-5.4 1.3-8.1l2.3-5.6c-1.3 5-2.4 9.8-3.2 13.7h36.3l.2-.7v.7h12.6c.8-2.7 1.4-7.5 2.2-13.2l2.2-.5-.2.6-3 13.1h16.9l.4-1.2c.5-2 1-5.5 1.3-9.7l1.4-.4.1-.4v1c0 3.6.3 7.2 1 10.7h18.9l.6-.3.3-.5c.8.4 2.4.3 4-.1v1h25l1-6.5 2.3-5.5-3 12h36.3v-1.4l1 .4-.3-3.5 1.4 1.3c0 1.1-.2 2.2-.4 3.1h27.8l1.3-3.5-.8 3.5h31.5c.8-2.3 1.5-4.7 2.1-7l-1.3 7h49.4l-.2-24.7c1-2.8 2-5.7 3.3-8.5m70 30.5.8-12.6c2.7-12 7.5-22.8 7.5-22.8A47 47 0 0 0 378 99.3c-.2-3.2-1.3-6.3-2.9-9 0 0-.1 4-1 9.7l-.3-4.2.9-16-2 7.1-1.5-13.9.3 18.4-4.8 18.3c.7-5.1 1.7-10.3 3-15.3-3 1.4-5.4 5.3-7.1 10.6l1.3-20c-.5 1.4-2.7 9.1-5 18.7 0-5.2-.7-10.1-3.1-13.9 0 0-.6 9.4-2.7 19.6 0-10.9-.3-19.3-.3-19.3l-2.9 16c.1-3.1-.2-6.3-1-9.3v-1.6l-.2.8-.4-1 2.3-21.4-3.8 18.6v.6l-2 9.7a16 16 0 0 0-2.6-4.7s0 6.2-1 13.4l-1.8-19c-.3 1.2-1.4 7.8-2.4 16 0-.9 0-1.7-.3-2.5 1.7-18.7 3-39.5 3-39.5-.7 2-4.6 16.6-8.3 31.2l-.8-3-.4 7-.3 1.4 1.6-24-2.3 8.1.6-10-8 29.9c.7-5.1 1.8-10.2 3-15.2-3 1.4-5.3 5.3-7.2 10.6l1.4-20c-3.1 11-6 22.3-8.8 33.5h78.1c1.6-18.7 2.7-39.2 2.7-39.2-3.3 12.2-6.4 24.3-9.4 36.5m152.6-4-2.2-7.8.2-8.4c.9 2.9 1.7 5.8 2.4 8.8 0 2.5.2 5.3.5 8.1l-1-.5m-95.5-4.3-.2-6.7.6 3.5-.4 3.2Zm134.2 4L570 94v-.6l-3.7-18.5 2.2 21.4-.4 1-.1-.8V98c-1 3-1.3 6.1-1 9.2-1.4-8.3-2.7-14.7-3-16 0 0-.3 8.5-.3 19.5-2.1-10.6-2.6-19.8-2.6-19.8a24.4 24.4 0 0 0-3 14l-5-18.8.2 3-.2-1 .4 3.4.9 14.6c-1.7-5.3-4-9-7-10.6 0 0 1.5 6.4 2.7 15.3l-4.6-18.3.2-18.4-1.4 14-2-7.3.9 16.1-.4 4.3c-.8-5.7-1-9.9-1-9.9a19.2 19.2 0 0 0-2.9 9.1c-1.9-8.1-6-15.6-11.7-21.7 0 0 2.4 5.4 4.8 13l-.7 6-5.3-20s.7 13.4 1.7 28.2c-1.2 2.4-1.8 5-2.1 7.8a52 52 0 0 0-10-19.8v-.7l-.1-.7-3.8-18.5 2.3 21.5v.2c-.8-2.4-1.3-4-1.3-4.6 0 0 0 3 .4 7.6-.6 2.4-.8 5-.7 7.8-1.3-8.2-2.7-14.6-3-16 0 0-.2 8.6-.2 19.5a157.3 157.3 0 0 1-2.7-19.7 24.4 24.4 0 0 0-3 14l-5.1-18.8 1.3 20c-1.7-5.4-4-9-7.2-10.7 0 0 1.8 6.4 3 15.3L490.8 92l.3-18.4-1.5 13.8-2-7.2 1 16.2-.5 4.2c-.4-3.2-.7-6.5-.9-9.8a19.2 19.2 0 0 0-3 9c-1.9-8.1-6-15.6-11.7-21.7 0 0 4.8 11 7.5 23l.8 12.6c-3.2-13-7-26.8-8.7-33.2l-1.7-9 1.2 11.4.5 10.3v1.7c-.9 3-1.2 6.1-1 9.2-1.4-8.3-2.7-14.7-3-16 0 0-.2 8.5-.2 19.5-2.2-10.6-2.7-19.8-2.7-19.8a24.4 24.4 0 0 0-3 14L457 83l.8 12.6c-.8-2.7-1.9-4.8-3.5-6 0 0 .1 6.4-.5 15.4-.3-10.3-.6-20.6-1.1-30.9 0 0-1.7 9.3-3.5 21.3l.4-24.4-2.9 27.1a145 145 0 0 1-1-9.9 19.3 19.3 0 0 0-2.6 7.4l-.7-14.4-1.6 10.1-2.6-6.1-.8-17.9-1.5 9.3v-.4l-.1 1.1-.6 3.2a38.4 38.4 0 0 0-4.1-5s1.6 3.8 3.5 9.1l-2 14-.3.7a29.7 29.7 0 0 0-3 8.8l.7-16.1-4.8 18.4c.3-10.7 1.9-19.8 1.9-19.8a24.5 24.5 0 0 0-5.9 13.1l-.6-19.5-3.2 20c-.6-5.6-2-9.8-4.7-12 0 0 .3 6.6-.5 15.5l-.6-19 4.4-17.7-4.5 13.2-.4-7.4-2.7 16-1.3 4c.5-5.9 1.3-9.9 1.3-9.9-2.2 2.3-4 5-4.9 8.1a47.7 47.7 0 0 0-6.7-23.7s2.4 11.6 2.3 24l-2.1 12.4c-.4-16.8-1.1-35.3-1.4-37.7 0 0-4.2 25.8-6.6 45.7h69.8l.3-3 .1 3H520l-3.2-16.5c1.5 4.2 3.2 9.8 4.5 15.7v.8h59.1c-3-11.6-6-23.1-9.2-34.7l1.9 27.8"/><path fill="#004b5e" d="M865 110.8c-.6-.7-1.3-1.6-1.8-2.6l-1-6.6c1 3.3 2.2 6.6 3.5 9.8l-.6-.6Zm-48.2-40.3.3-11.6c.2 5.3.8 11.5 1.3 17.6l-1.6-6Zm79.5 21.6c-2.2-9-4.5-18-7-27v6c-1.4-9-2.6-16-2.6-17.1 0 0-2.7 12-5 25-.6-5.3-1.4-10.6-2.4-16 0 0-2 19.1-2.9 34.7a939 939 0 0 0-6.5-31.6s-.7 13.3-.8 26.7c-2.3-9.5-2-19.4-2-19.4a18 18 0 0 0-3.9 9.6c-1.3-8-1.6-14.4-1.6-14.4-2 3.4-3 7.2-3 11.1-2-12-4-22.7-4.3-24.3 0 0-.3 9.6-.3 21.6-1-6.2-1.2-10.6-1.2-10.6a18.7 18.7 0 0 0-2.8 9l-6.7-25.2s.4 8.8 1.4 20c-1.9-5.3-4.3-9-7.2-10.5 0 0 1.6 6.3 2.9 15.2-3.7-14.1-7.3-28-8-29.9 0 0 1 17.4 2.4 34.6-1-7.4-1.3-13-1.3-13-2 3.4-3 7.2-3.1 11.1L824 54.4s.5 11 1.5 24c-3-12.1-6.2-24.2-9.5-36.3l.8 13.3-1.2 10.7-2-7 1 16-.5 4.2-.9-9.7a21.3 21.3 0 0 0-3 9l-2-6 .3-17-1.4 13.8c-2-4.7-4.9-9-8.6-12.5 0 0 5 10.7 7.4 22.7l-.7 6.2c-2.6-10-5.2-20-8-30l1.5 22.2a51 51 0 0 0-6-12l-2-11.2-.3 8.4-1.7-1.9 1.7 4.4c-.2 12.4-.2 24.8 0 37.2a1840 1840 0 0 0-11.5-44l1.4 20c-1.9-5.2-4.2-9-7.2-10.5 0 0 1.6 6.2 2.9 15.3-2.5-10-5.2-20-8-30 0 0 .8 14 2 29.3-1.9-10-2.4-18.8-2.4-18.8a27.6 27.6 0 0 0-2.7 17.5l-5.3-19 1.7 24.2-.4-1.3c0-3.6-.2-6.3-.2-7l-.7 3.2a1196 1196 0 0 0-8.3-31.3s1.1 20.8 2.8 39.5l-.2 2.4-2.3-16s-1 8.8-1.9 19.2c-1-7.4-.9-13.5-.9-13.5-2.4 3-3.8 6.6-4 10.4l-2.7-13L742 95c-1.8-8.9-1.6-17.4-1.6-17.4-4 4.8-4.6 11.3-3.6 17.7l-2.4-12.5V82l-.2.1-3.7-18.7 2.3 21.6a26.7 26.7 0 0 0-1.6 11c-1.4-8.3-2.7-14.7-3-15.9l-.2 19.3a153.8 153.8 0 0 1-2.7-19.6c-2.3 4.3-3.4 9.1-3 14l-5-18.8s.4 8.7 1.3 20c-1.8-5.3-4.2-9.2-7.2-10.6 0 0 1.6 6.2 3 15.3l-5-18.7.3-18.2-1.5 13.8-2-7.2 1.1 16-.5 4.3-1-9.7a21.3 21.3 0 0 0-2.9 9c-2-8.2-6-15.6-11.7-21.7 0 0 4.9 10.8 7.4 22.7l.6 9.2c-.8-3.5-1.9-7-3.2-10.3l-6-22.7.6 12.6a29.8 29.8 0 0 0-4.1-4.8s1.6 3.3 3.3 8.4c-.1 6.2-.4 19-.2 31.6-4.3-17.4-9.9-38.2-10.7-40.7l1.3 20c-1.8-5.2-4.1-9-7.2-10.5 0 0 1.6 6.2 3 15.3-2.5-10-5.2-20-8-30l.6 10.1-2.2-8.4s.5 11.1 1.6 24.2l-.4-1.4c0-3.6-.3-6.2-.3-6.9l-.5 3.3a1196 1196 0 0 0-8.3-31.3s1 20.8 2.8 39.5l-.3 2.4-2.2-16s-1.1 8.8-1.9 19.2c-1-7.4-1-13.5-1-13.5a16 16 0 0 0-2.6 4.7l-2-9.8v-.6L647.3 65l2.2 21.5-.3 1-.1-.9-.2 1.8c-.8 2.6-1 5.8-.9 9.2l-3-16-.3 19.4c-2-10.5-2.6-19.7-2.6-19.7a24.4 24.4 0 0 0-3 14L634 76.5l1.3 20c-1.8-5.3-4.1-9-7.2-10.7 0 0 1.6 6.4 3 15.4-1.6-6.7-3.4-13-4.8-18.3l.4-18.4-1.6 13.9-1.9-7.2 1 16.1-.5 4.3c-.8-5.9-.9-9.9-.9-9.9a19.2 19.2 0 0 0-3 9c-2-8-6-15.6-11.8-21.7 0 0 5 11 7.5 22.8l.6 9.4-.8-3.9v-.7l-3.7-18.5 1.3 12.8c-2.9-11.5-5.6-21.2-6.1-22.8 0 0 1 17 2.4 34.1l-.1 12a157.5 157.5 0 0 1-2.7-19.8 24.4 24.4 0 0 0-3 14l-5.1-18.8 1.3 20c-1.7-5.4-4-9-7-10.7 0 0 1.5 6.4 2.7 15.3L590.7 96l.2-18.4-1.4 13.8-2-7.2.9 16.2-.4 4.2c-.8-5.7-1-9.8-1-9.8a19.2 19.2 0 0 0-2.9 9c-1.9-8.1-6-15.6-11.7-21.7 0 0 5 11 7.6 23l.7 10.7h154l-.7-3.6 1 3.6h5.8l-3-15.6c1.1 4.4 2.6 8.3 3.8 11.2v4.3h31.7l-2.9-12 2.3 5.5c.2 2.5.6 4.6 1 6.5h27v-.4l1.3-1.3v1.7h15.6l-1.5-6.3a131 131 0 0 0 2.3 6.3h21l-.6-2.7 1 2.2-.2.5h69l.2-2.4c0-5.9-14.3-59.5-15.6-63.6 0 0 1.3 23 3 42.4Zm99.4-79.6s-.4 14.7-.4 31.7c-2-13.2-3.7-23.6-4.1-25.3 0 0-.3 16.5 0 35.9-3-12.7-6.3-25.3-9.7-37.9l.2 20.5c-.9-2.5-2.1-4.5-3.4-6l-1.4-5.2.8 4.3c-.9-1-2-1.9-3.2-2.4 0 0 3.5 13.5 5 30.1-4.3-16.5-8.4-32-9.2-34.4 0 0 .8 14.3 2.1 30.8L968.3 32l-.4 23.7a1201 1201 0 0 0-9.2-34.3l1.4 23.1-.8-3.5-.4-3.4v2.1l-3.8-14 1 15.5a345 345 0 0 0-5.3-21.2l1 19.8c-1-1.2-2.3-2.2-3.7-2.9 0 0 2 7.5 3.5 18.1-4.3-16.9-8.7-33.3-9.3-35.6 0 0 .8 16.3 2.2 34.2l-.4-1.4s.7 12.7 1.9 27l-2.7-10.8.3-10.2-.8 7a194.6 194.6 0 0 1-2.4-19.6c-1.2 2-2 4-2.7 6.2l-.1-.6v1.2c-1.4 8.9-.8 18 1.9 26.6 0 1.6.2 3.2.4 4.7v6.7a79 79 0 0 0-10.7-31v.6a29.4 29.4 0 0 0-4.3-5s2.4 5.4 4.7 12.4l.8 12c-1.7-5.4-4-9.2-7-10.8 0 0 1.5 6.4 2.9 15.4-1.4-5.4-2.7-10.7-4-15.2l.1-9.9-.8 7.5-3.3-12.4-.4 11.3v-.8a27.6 27.6 0 0 0-2.8 17.6l-5.1-19s0 3 .4 7.8c-2.5-9.8-5-19.6-7.7-29.3 0 0 2.8 53.3 6.4 65.7l.4 1.3 1.2 7.1h89.3V36c-2-12-3.9-21.6-4.3-23.5Z"/></svg>