<svg xmlns="http://www.w3.org/2000/svg" width="141" fill="none" viewBox="0 0 155 240">
  <path fill="#fff" d="m60.4 59.6-.6.3c-.6.4-.8 1.3-.4 1.9.5 1 1.2.7 2.1 1.2 2.8 1.3 5.5 1.9 8.1 3.5a90.2 90.2 0 0 1 27.8 24.6 77.2 77.2 0 0 1 12.5 52.1c-.8 9.3-2.6 18.3-3 27.6-.5 10-.3 19.8-.3 29.7 0 13.3 1 31 15.2 37 11.6 5 24.5-2.2 25-15 0-1.7-2.7-1.7-2.7 0-.5 11.5-12.6 17-22.4 12-10.3-5.4-12.2-18.4-12.4-28.8a565 565 0 0 1 .1-31.4c.4-10.8 2.5-21.4 3.3-32.1a80 80 0 0 0-11.8-51 87.3 87.3 0 0 0-18-18.8 125 125 0 0 0-17.2-11c.4.1-4.2-1.3-4-1l-.5 1.9.5-.3c1.5-1 .2-3.3-1.3-2.4Z"/>
  <path fill="#fff" d="M61.6 61a22 22 0 0 1-23 1.8c-5.9-3.4-10.6-9.8-14.8-15A87 87 0 0 0 2 27.2l-.6 2.5c2.3-.3 5 1.1 7.2 1.6 2.9.6 5.8 1.1 8.6 1.8a184 184 0 0 1 19.3 5.4c6 2 11.1 4.9 15.9 9 2.4 2.2 4.6 4.7 6.3 7.4.2.3 2.3 6 3.1 6-1.7.1-1.7 2.8 0 2.8h.6c.7-.1 1-.5 1.3-1 1.4-3.4-2-8.3-3.8-10.8-4-5.4-9.4-10-15.4-13.1-6.8-3.5-14.6-5.2-22-7.2l-13.1-3c-2.5-.5-5.5-2-8-1.6-1.3.2-2 1.8-.7 2.5C14 38.1 21.4 51.6 33 62c8.3 7.4 21.8 8 30.6 1 1.3-1.1-.6-3-2-2Z"/>
  <path fill="#fff" d="m6 29-.3.1c-1 .3-1.2 1.5-.6 2.3 3.4 4 10.2 5.4 14.8 7.7 5.4 2.7 9.8 5.7 14.4 9.7 4.4 3.8 9.3 6.4 14.2 9.5 4.2 2.6 8.6 5.8 13.7 5.8 1 0 1.9-1.6 1-2.4-.2 0-.3-.2-.4-.3-1.3-1.1-3.3.8-2 2 .2 0 .3.2.4.3l1-2.4c-5.5.1-11.2-4.7-15.7-7.4A107 107 0 0 1 33 44.2a58 58 0 0 0-10-6.6c-4.7-2.5-12.4-4-15.8-8.1l-.6 2.2h.2c1.7-.5 1-3.1-.7-2.7Zm69.5 36.2c-1-2.5-2.7-4.7-3.4-7.4-.7-2.6-.8-5.4-1-8-.4-5.4-.8-10.8-1-16-.2-12.5 5.2-22 12-31.8l-2.6-.7c.4 4.7-1.7 9.4-1.3 14.2.5 6.2 3 12 3.7 18.1C83.2 44 86.6 62 73.3 65.4c-.5.1-1 .5-1 1v.3c-.4 1.7 2.2 2.5 2.6.7 0 0 7.1-4 8.2-5.5 3.4-5 3-12.1 2.6-17.9a110 110 0 0 0-3.4-21.3c-1-4-1.7-8-1.3-12.2.3-3 1.5-6.2 1.3-9.2a1.4 1.4 0 0 0-2.6-.7c-7 10.2-12.5 20.3-12.2 33.1 0 6.4.5 12.8 1.2 19.2.5 5.3 2.4 9 4.5 13.7.6 1.6 3 .2 2.3-1.4Z"/>
  <path fill="#fff" d="M77 65.2c-.3-.4 1.5-4.8 1.7-5.6.4-2 1-4.1 1.3-6.2a62 62 0 0 0-.5-14.9c-1-5.3-2.2-10.3-2.6-15.7a21 21 0 0 1 .7-9c.8-2.7 2.2-5.2 2.7-8-.9 0-1.7-.2-2.6-.3V6c0 1.8 2.7 1.8 2.7 0v-.6c0-1.5-2.4-2-2.7-.4-1 5.4-4 9.8-3.8 15.5.3 5 1 9.6 2 14.4 1.5 6.5 2.2 14 1 20.5-.6 2.8-1.7 5.5-2.3 8.3-.3 1.4-.8 1.5.1 2.8 1 1.4 3.4 0 2.4-1.4Zm5.1 8.3A61.2 61.2 0 0 0 50.6 82c-9.8 6-13.8 16.2-19 26.1-.8 1.4 1 2.7 2.1 1.7 9.2-8.5 23.3-6.7 34-12.4a30.3 30.3 0 0 0 16.2-21.9c.3-1.7-2.1-2.4-2.6-.7-2.8 9-18.1 14.3-25.7 18.2-4.2 2.1-8.3 4.4-12.5 6.8-2.8 1.6-7 3.2-8 6.5-.5 1.6 2.1 2.4 2.7.7 1.1-3.6 10.5-7 13.8-8.9 4.3-2.5 9-5 13.6-7.1 6.4-3 16.4-8 18.7-15.5l-2.6-.7c-2 12.6-12.2 20.1-24 23.4-8.7 2.5-18.5 3.1-25.5 9.6l2.1 1.7c4.9-9.2 8.9-19.5 18-25.2 8.9-5.4 20-8 30.2-8 1.8 0 1.8-2.7 0-2.7ZM100 89.7c-3.5-2.3-4.5-9.8-5-13.6-.8-5.4-1-11.3-.4-16.8 1-11 .8-26 8-35.1l-2.4-1c.5 5 .8 9.3 2.4 14.2 1.4 4.5 2.7 9.2 3.6 13.8 1.2 6 1.8 11.8 1.4 18-.4 6.2-2 17-8.5 20.4l1.8 1.9.8-1.5c.8-1.5-1.6-2.9-2.4-1.3l-.7 1.4c-.7 1.2.6 2.5 1.8 1.9 3.8-2 6.5-7.1 8-11a53 53 0 0 0 2-20.6 72.8 72.8 0 0 0-3.2-16.6c-2.1-7-3.5-13.3-4.2-20.6-.1-1-1.5-2-2.4-1-7.8 10-8 26.1-8.8 38.2-.5 6.5-.4 13.6 1.1 20 .9 3.6 2.5 9.5 5.7 11.7 1.5 1 2.9-1.4 1.4-2.4Z"/>
  <path fill="#fff" d="M100.4 89.3c-.6-.3 2.5-14.1 2.7-16.4.2-4.3.1-8.9 0-13.2-.5-10.3-5-20.1-1.7-30.4l-2 .8.4.3c1.5.9 2.9-1.5 1.4-2.4l-.4-.2c-.8-.5-1.8 0-2 .8-3.1 10 .5 19 1.4 28.8 1 11.2-1.6 21.8-2.2 33 0 .4.3.9.7 1l.3.3c1.6.9 3-1.5 1.4-2.4Zm7 26.8c-10 9-21-2-30.1-6.1-3.5-1.6-7.2-3.1-10.8-4.4-4.6-1.7-8.4-.9-13.1-1.6l.3 2.5c7.6-4.7 20.2-5 28.8-4.6 5 .3 10 1.2 14.4 3.6 3.6 2 9.8 6 10.5 10.4.3 1.7 2.9 1 2.6-.7-1.4-9.4-15.4-14.4-23.3-15.6-5.7-.8-11.7-.6-17.4 0-5.4.8-12.3 1.6-17 4.5-.9.6-.9 2.3.4 2.5 2.3.4 4.5 0 6.8.1 3.3.2 6.4 1.6 9.4 2.8a106 106 0 0 1 16 8.4c7.2 4.5 17.6 6.3 24.4.1 1.3-1.1-.7-3-2-1.9Z"/>
  <path fill="#fff" d="M56.6 104.4c1.6 2.1 8.3.7 10.7.8 7.1.4 13.8 2 20.3 4.8 5 2 16.7 10.1 22 4.5 1.3-1.2-.6-3.2-1.9-1.9-3.2 3.4-10-1.3-12.7-2.6-3.6-1.6-7.4-3.4-11.1-4.7a63.3 63.3 0 0 0-11.5-2.3 56 56 0 0 0-5-.5c-1.3 0-8.3.7-8.9 0-1-1.4-3 .5-2 1.9Zm57.7 29.6c-3.8-12 1.7-22 8.7-31.3 5.5-7.4 13.5-13.8 16-23l-2.7-.3c-.2 5.6 0 11.3.3 17 .2 6-1 11.3-2.5 17a29.2 29.2 0 0 1-23.4 22.3c-1.7.3-1 2.9.7 2.6a31.4 31.4 0 0 0 23.7-19.2c5.6-13 3.5-26 3.9-39.7 0-1.6-2.3-1.9-2.7-.4-1.7 6.4-6.3 10.9-10.5 15.7-3.5 4.1-6.9 8.6-9.8 13.2a31 31 0 0 0-4.3 26.7c.5 1.7 3.2 1 2.6-.7Z"/>
  <path fill="#fff" d="M113.4 135.7c5.2-8.2 11.8-14.6 16.3-23.4 4-8 7-16.7 7-25.7 0-1.7-2.8-1.7-2.8 0 0 9.8-4 19.2-8.4 27.7-3.8 7.5-10 13-14.5 20-.9 1.6 1.5 3 2.4 1.4ZM107 161c-4.1 4.9-14.5-2-18-5.2-3.5-3-5.6-7.1-8.5-10.7-5.6-7.3-12-12.5-18.8-18.4l-1 2.4a56 56 0 0 1 28.5 7.6c8.7 4.5 18.4 15.4 18.2 26l2.5-.7-.4-.7c-1-1.5-3.3 0-2.4 1.4l.5.6c.7 1.2 2.5.7 2.5-.7.1-5.5-2.2-9.1-4.9-13.9-3-5-5.7-9-10.8-12.3-5-3.2-10.7-5.8-16.4-7.2-5.3-1.3-11.8-3.5-17.3-2.9-1 .1-2 1.5-1 2.4 5.2 4.4 10.4 8.1 14.8 13.4 4 4.8 7.3 10.6 11.8 15 4.4 4.2 16.9 12.6 22.6 5.9 1.1-1.4-.8-3.3-2-2Z"/>
  <path fill="#fff" d="M63 129.2c10 6.4 22 11.4 29.7 20.5 4.8 5.6 7.3 14.6 15.6 15.6 1.8.2 1.7-2.5 0-2.7-6.2-.8-8-7.6-11.2-12a43.9 43.9 0 0 0-7.4-7.6c-7.8-6.4-16.8-10.8-25.2-16.2-1.5-1-2.9 1.5-1.4 2.4Zm46.9 51.8c2.4-5.2 4.7-10.2 9-14.3 4.5-4.4 10.3-7.7 15.3-11.6 4-3 7.7-6.4 11.6-9.6 2.8-2.4 6.9-4.6 8.6-8 .7-1.7-1.5-3-2.4-1.5-2.5 4.3-2 10.8-3.5 15.6a47.4 47.4 0 0 1-9.7 19 35.6 35.6 0 0 1-12.3 7.3c-6 2.7-11.1 2.8-17.3 1.3l.3 2.5c4.8-3.7 10.9-5.5 15.9-8.9 4-2.8 8-6.3 11.3-10 3.1-3.6 6-7.5 8.8-11.5 2.3-3.3 5.8-6.8 6.7-10.8.4-1.7-2.2-2.4-2.6-.7-.9 3.8-4.5 7.5-6.8 10.6-2.8 3.8-5.8 8.2-9.1 11.6-3.3 3.4-7.3 7-11.4 9.5-4.5 2.9-10 4.5-14.2 7.8-.8.7-.9 2.2.4 2.5 5.7 1.4 8.5 2.2 14.5.4 5.1-1.6 11-3.9 15-7.2 4.5-3.5 7.8-8.7 9.9-13.8 1.4-3.6 2.8-7.2 3.9-11 1-3.5.7-9.7 2.6-12.8L152 136c-1.9 4-7.4 7-10.7 9.7-5 4.2-10 8.3-15.3 12-4 2.9-8 5.5-11.1 9.1-3.4 3.8-5.3 8.4-7.4 12.9-.7 1.6 1.6 3 2.4 1.4Z"/>
</svg>
