<svg xmlns="http://www.w3.org/2000/svg" width="142" height="210" fill="none"><path fill="#fff" d="M80 112a1115 1115 0 0 0 0-5v5Z"/><path fill="#fff" d="m78 140-1 16v1l1-18v-1 2Zm-1-17v-7l1-5-1 12Zm-2 16v11l-1-10v-1l1-3v3Zm-1 24-4 8 3-15 2 3-1 4Zm-2 13-1 2v2l-1 12-3 10 3-27h1l2-3-1 4Zm0 19v4l-1-1 1-6v-3 6Zm-6-14v-2l1-11 1 3-2 10Zm0-17-1 5h-1l-1-15 3 10Zm-6-30-1-3 6 21-5-18Zm-6-27 14 38-6-10-8-28Zm14 42-1 5-3-14 4 8v1Zm0 13 2-1v-1l1-5v-2 6l-2 8-1-2 1-1-1-1v-1Zm4-17 1 5h-1v-5Zm-9-68 3 8 1 10-4-18Zm16 82c5-10 11-19 19-26l-19 31v-5Zm27-30-17 22c5-8 10-15 17-22Zm-26-8 2-4 6-8-6 10-2 3v-1Zm31 2-1-1-7 7-1-1c-10 6-17 16-23 26v-19c8-14 17-27 22-42h-1c-4 13-12 24-19 36a348 348 0 0 1 14-28l4-8h-1l-5 7-13 17v-5 3-8l1-13V83c1-4 2-13 2-7a739 739 0 0 1 0-5l-2 7v-3h-1v6l-1 6-1 4v-6l1-10h-2c-3 13-4 26-6 40a566 566 0 0 0-6-40l1 9a257 257 0 0 0-4-10l8 57-1 12-17-44-1 1 5 20a2054 2054 0 0 1-6-14l1 7a381 381 0 0 0 0 2l9 30 3 25c-3 3-7 4-11 6v1l11-5 1 5-1 4-2 20 2 1 3-13-1 17c0 1 1 2 2 1l2-5v1l1 1 1-1 1-3v4h1l1-17a362 362 0 0 0 1 20l1 2h1v-3l1-30c11-14 22-28 29-44h-1c-8 14-18 27-28 40 9-17 24-31 33-49Z"/><path fill="#fff" d="M57 186a44 44 0 0 1-6-1h-1a352 352 0 0 0 34-3l13 2c-13 2-27 5-40 2Zm46-3a178 178 0 0 0-64 0c13 0 26-2 39-1-10 1-21 2-31 1l-1 2c17 8 39 5 57 0v-2ZM58 36l-8 12 5-10 1-1a407 407 0 0 1 2-1Zm-43 98 6 1h-1a193 193 0 0 1-7-1h2Zm12-1-1 1-4-1h5Zm78-56c-3-2-4-9-5-12l-3-9a644 644 0 0 0-5-14l-6-19a94 94 0 0 1-2-13v8a71 71 0 0 0-6-12v1l-8 8 2-4a1381 1381 0 0 1 0-2v1l-6 10v1h-1v1l-4 5 2-4h-1a1431 1431 0 0 1-31 55l-2 4h1l-1 2-7 2 1 2 6-2-1 1h2v-1l5-1-2 2v1l-1 1a718 718 0 0 0-10 14c-3 3-6 7-7 12h-1l1 1-2 3-1 1 1 1h1l-7 10 1 2-2 1v2h2l1-1v1c1 2 4 1 6 1h10l-1 1-7 10h-1a358 358 0 0 0-8 19v1l-8 15h1l3-4c18 3 36-6 54 0v-1c-13-7-31-1-45 0H7a1149 1149 0 0 0 1-6l1-1v-1l2-3 5-8c4-7 9-13 12-21 1 0 0 0 0 0l-8 12 3-6 2-5 2-2h-1l4-1v-2h-3v-1h2v-1H15l-4-1 14-25a255 255 0 0 1 6-11l7-11v-1l4-1c1-1 0-2-1-1l-2 1v-2h4l2 1 1-1-2-1h-4c1-1 0-2-1-1l-1 1h-5l2 1-2 1 3-1h2a1222 1222 0 0 1-2 3l-5 1 4-11 1-2a713 713 0 0 0 0 2c0 1 1 2 2 1l3-8a158 158 0 0 1 7-14l8-11-1 2 1 1 1-2 7-13 4-5h-1a641 641 0 0 0 1-4L78 7h1l7 18 4 16 3 8 7 22c1 2 2 7 4 7 1 1 1 0 1-1Z"/><path fill="#fff" d="M104 84h1a1402 1402 0 0 0-1 0Zm6-3v2l-5-1 5-1Zm6 17-10-14 5 1 5 13Zm24 25-8 2-5-10-8-17-5-12h2v-1h-2l-1-4h2v-2h-3a564 564 0 0 1-20-50c-1-2-4-10-2-12h-1v7l7 21 13 32v2l-4 1h-3 1l-1 1h-2l1 1v1c9 12 16 24 23 36h1v-1l4 7h2-11v1l12 1-1 1h-1l-12-1c-2 0-2 2 0 2h2v1h14l1-2-2-2 8-1-1-2ZM142 182l-2-3v-2h-1l-23-44s-1 0 0 0c7 15 13 30 22 44h-3c-5-15-14-29-20-43h-1l2 4v1l6 13 9 19 2 6-51 5v1a499 499 0 0 1 13 0h-4a772 772 0 0 0-15 3l11 1c16 1 32 2 48 0v-2h-1l-33 1 33-6 1 1h1v-1l3-1 2 3h1ZM136 157c-5-9-11-19-18-27l-1 1 17 27c1 1 3 0 2-1ZM48 78c-5 6-9 13-12 20l-13 24 1 1c8-15 14-31 25-44l-1-1ZM55 57l-8 14h1l8-14h-1ZM67 52c-1 6-1 11-3 16l1 1c2-6 2-11 2-17ZM70 34l-3 7c-1 2-3 3-3 5-1 1 0 1 1 1 2-4 5-8 5-13ZM79 35h-1l5 22c1 0 2 0 1-1l-5-21ZM88 75l-1 1 4 16h2l-5-17ZM69 70h-1l-1 16h1c2-5 1-11 1-16ZM54 87l-3 6-4 8 1 1c4-4 6-10 7-15h-1ZM38 117l-3 9h2l1-9ZM45 133h-1c1 6-1 11-3 17h1c3-5 4-12 3-17ZM37 149l-12 12 1 1 12-12c1-1 0-2-1-1Z"/><path fill="#fff" d="M116 156h-1l2 13c0 2 2 1 2 0l-3-13ZM108 177c-1-3-4-7-2-10 1-1-1-2-1-1-3 4-1 9 1 12 1 1 2 0 2-1ZM114 109l-1 1 7 14h1c-1-6-4-11-7-15Z"/></svg>