<svg xmlns="http://www.w3.org/2000/svg" width="141" height="236" fill="none"><path fill="#fff" d="M42 139c-3 2-5 6-6 10l-8 12c-4 7-8 14-10 22h1c3-7 6-15 11-22l5-9 5-9v1l2-5c1 0 0-1 0 0ZM63 189l-1 1v-1a131 131 0 0 0 9-19l-7 19h-1Zm10 3-2 3c-1-3 1-6 1-9l2-9c1-7 3-13 2-20l-1 1-1 11-2 9-1 1-6 12 4-11c1-4 5-10 4-14l-1-1-2 4a386 386 0 0 1-8 16l4-13 2-9 4-10h-2l-6 20c-2 5-5 11-4 16l-5 7 4-12 5-16h-1l-6 16c-1 4-4 9-4 13l1 1c3-1 5-4 6-6l2 1 1-1-1 3h2l6-9c-1 3-2 7-1 10l1 1 4-4-1-1Z"/><path fill="#fff" d="m82 186-1 1 1-12c1-5 3-11 0-16l-1 1c2 3 1 7 0 10l-1 8-1 11c-1 1-2 1-2-1l1-6-1-16h-1v16c0 3-1 7 1 9h2l1 1 1 1h1v-2l-1-2 2-2c1-1 0-2-1-1ZM115 182c-3 0-4-5-5-8l-5-13-1 1 6 16c1 2 2 6 5 6v-2ZM75 39c-2 7-2 14-2 21-1 5-3 12 0 17h1c-2-6-1-11 0-17 1-7 0-14 2-21h-1Z"/><path fill="#fff" d="M85 55c-4 2-7-10-7-12l-1-7c-1-2-4-8-1-10l-1-1c-3 2-1 6 0 9l2 11c0 2 4 16 8 11v-1ZM89 63l-1-8-1-10c0-1 0-1 0 0v15c1 6 1 12-2 18h1c3-5 3-10 3-15Z"/><path fill="#fff" d="M73 198h8-8Zm-25 0h-1l1-2h-1l-2 2h-1l1-2 1-1 2-2-1-1 1-1 5-11-5 18Zm-6 0-9 1v-1l8-2h2l-1 2Zm-10-3h-4l5-5-1-1-3 3-2 2-2 1 1-2 2-3a391 391 0 0 0 5-9l6-9 7-10-1-1-6 8-3 4 17-32 1-1h-1v1h-1l-9 16v-1l-2 5a636 636 0 0 1-12 21l-2 4 4-10v-1l2-3 7-11c1-1 2-4 1-5l-1 1c1 1-2 5-3 6l-3 4 2-3 3-7c5-6 11-12 15-19l2-3c3-1 5-4 7-6l2-3-3 9-13 24 1 1 12-23h1l4-1a518 518 0 0 1-7 14h-1l-4 7 1 1a105 105 0 0 1-10 17l-9 13c4-9 9-16 14-24h-1c-6 7-12 17-15 26v1l-3 4Zm-7-9h-1l-2 4 3-5 1-2-1 3Zm-1 4-1 1-3 3v-1l4-4v1Zm-14 8h1l11-1-12 1Zm23-36h1l3-3-6 14-2 2a562 562 0 0 0-11 21h-6c9-10 17-21 21-34Zm-17 23 4-11 2-10 5-8 9-14-1-1-1 1-1 1v1l-5 8 2-3 2-7 1-1 1-1c1-1 0-2-1-2v-1h1c4-3 5-9 6-13h1c3-1 5-4 6-6l-1 5-1 1-1 2-2 6a142 142 0 0 1-2 4v1h2v-1l1 1 5-3-4 5c-1 1-2 3-1 5h2c3-1 4-5 6-8v-1l4-4a44 44 0 0 0 0 3l-3 5-14 16v1a105 105 0 0 0-5 6c-6 11-12 21-21 31l4-8Zm4-22v1l-1 1-3 4 1-1 5-7-2 2Zm11-28h-3l1-1 4-12 8-16a358 358 0 0 1 4-8c1 0 2-2 2 0l-1 3-5 10-5 10-5 9c0 1 1 2 2 1 2-1 4-4 5-7h-1l-3 4 4-7 5-10a92 92 0 0 0 0-1c-1 3-4 8-3 12h-1l-2 6-5 7v1l-1-1Zm-3 4-2 1-6 1 3-1 7-3-2 2Zm-7-4 7-13 3-6 5-10a261 261 0 0 0 16-38h-1l-1 1v1-2l2-1c1-1 0-2-1-2l2-3 5-10 3-4 2-1c0 2 0 4-2 5 2-1 2-3 3-5l-1-1h-1l2-5 2-4 2-2 1-2v-1c-2 1-4 4-4 6l-5 9-3 2h-1l-1 1v1h-1c0-2-2-2-3-2l1-2 6-7 5-8 3-4 2-2h1v-1c-5 2-8 9-11 13l-7 8-2 4h-1c-3 3-6 9-6 13h2c0-3 1-5 3-7h1l2-4 2-1c1-1 1 0 1 2L41 69l-3 1c-2 1-4 1-2-1h-1l7-11a279 279 0 0 0 23-36v-1l3-6a36 36 0 0 1 5-7l-4 5 5-10v1l7 9 2 2h-1v4l-5-6-2-6h-1l2 8-5 15v-1l-2 7-3 9-7 15-2 4c-2 1-2 3-3 5h1l6-11 6-13 1-4-1 9-1 6-11 42-1 3-2 6 1-5v-8l-2-1-3 4v-1h-1l-1 1 3-5c2-4 5-8 5-12h-1l-2 3h1l-2 3-4 7-7 13-14 30-5 1 1-2Zm23-50 2-4v-1l-4 9 2-4Zm3-18 4-4-2 3-2 1Zm-12 7 7-3h2l-9 3Zm-3 0 2-3 1 1-3 2Zm50-50-3-7 3 5 1 2h-1Zm1-8 6 15-6-11v-4Zm10 26c3 5 5 10 9 14l5 4c1 3 2 5 4 6h-2v-1l-1-1h-1v-1l-9-9-7-13-4-8-3-8 9 17Zm8 9ZM58 94l2-5-1 4-2 5 1-4Zm-8 14-1 2v-3h-1l1 6h-1c-2 3-3 7-6 9v-1c2-4 5-9 6-14h-2c2-4 2-8 5-11 1 4-1 8-1 12Zm0 28-4 5v-1l1-2 2-2h1Zm4-8 3-5 1-2 1-2v1c-1 0 0 0 0 0l-3 5c-1 2-2 5-5 7l3-4Zm7-12 2-6v-1l5-13a426 426 0 0 1-4 18c-2 1-3 3-4 6l1-4Zm3 6-2 4-3 4 4-7 1-2v1Zm1-5-5 8-1 3 2-6 4-6v1Zm9 7v3l-2 2 2-5Zm1 6 4-5a334 334 0 0 1-4 16v-11Zm1-6a211 211 0 0 1 2-12v-3l3-14v8l2 11-1 4-1 1-6 7v-1l1-1Zm11 3-5 5c-3 1-2-1-1-3l1-3 1-6v-4l4 11Zm18 4 4 2h1-5v-2Zm-1-2 10 4-2-1c-3-1-6-1-8-3Zm13 6h-9l2-1v-1l7 2Zm23 60-8 1-12 1h-10l16-5c3-1 8-1 11-3h1l2-1v-2l-3 1-8-11-8-14-13-25h3c5 0 10-1 14 1l2-1-7-16-8-18-8-17-5-9-4-9h1l-1-1h-1c1 6 4 11 7 16l9 19 7 17 7 16h-2l-2-2-4-7-9-21-2-5-7-19-5-12 3 5v-1c-2-1-1-4-3-5h-1c0 5 3 10 5 14l3 8-4-10c-3-5-5-11-5-16h-1v4l3 9 6 15a466 466 0 0 0 11 27l1 2 5 10-6-3a143 143 0 0 1-1 0l-7-1-12-40v1l12 39-1 1-1 1 4 2v2l-1 1 2 2 3 8 4 7c1 11 5 21 10 30h1l-10-26 4 7 10 17 2 3c-4-2-6-6-7-10l-1 1c1 4 4 9 9 11l3 4c-5 0-9 1-14 3-8 2-15 5-23 5-2 0-2 2-1 2l-10 1 1-1h2l8-2c1 0 1-2-1-2l-10 2-11 1-11 1H50l6-21 3-11 7-14c2-3 4-7 4-11h-1l-6 9h1l5-7-2 5-4 7h-1c0 3-2 3-2 5a194 194 0 0 1-3 7l-1-1c0-1-1 0 0 0v3c-4 7-9 14-10 22l-2 3-4 1h-5l13-21 8-13 5-10 6-11 2-5 5-4-1 18c1 4 2 9 6 10l1-1c-6-2-5-10-5-14v-2l1-1 2-7 2 1c3 0 5-2 7-4l1-1v-1l1-1 5 27 1 2h-1l2 18 2 11-2 1v-3h-1l-1 2-1-6v-12h-1v9l-1-6c0-4 0-8-3-11v1h-1v1c2-1 1-2 2 1l1 8c0 6 0 13 3 18h2l4-2 1 2c0 2 2 5 4 3 2-1 2-5 2-8h-1c0 2 0 6-2 7a123 123 0 0 1-8-32l2 9 2 4 3 7h1a203 203 0 0 1-2-7v-1l-1-1-3-11-2-9-2-9v-1l-3-13 7-7c1-1 0-3-1-2l-9 8-3-12a172 172 0 0 0 0-7l-1 5-1-9c-1-9-2-18 1-26h-1l-2 13v1l-1 8v-7c0-3-2-23 0-24h1-1a85 85 0 0 1-1 0v21a283 283 0 0 1-3 31l-1 1c0-1 0-1 0 0v1l-4 9c-2 1-3 3-5 3l2-7 1-2 3-8v-3l-2 1-4 6a91 91 0 0 0 2-9l2-16 1-4a201 201 0 0 0 0-4l1-4c0-4 2-7 0-11v1c1 3-1 9-1 12l-1 6-5 13v-2h-1l-3 8-3 5-6 11-8 8v-1l1-2 3-6h-1l1-1 3-6 3-8 5-11h1l1-4 3-8 1-1 1-1 1-3h-1l-1 1 2-6c2-5 4-11 4-16h-1c0 6-3 11-5 17l-3 7-3 5a2937 2937 0 0 1 6-19c4-12 4-24 6-35l7-21 2 4 10 20c3 8 7 17 13 23l-10-1v2c7 2 14 4 21 4l1-1 1-2-5-6-6-8c-5-5-9-11-12-17l-7-18-5-7-7-9-1 1V0l-7 14 1-6h-1l-2 7-1 2-10 18-7 14-1 2-1 1-1 2-13 16c-1 1 1 2 2 1l-1 1-1 1v1l1-1v1h2l-1 1 1 2c6-1 12-3 17-6v1h-1c-3 3-4 7-5 10l-9 18v1h-1l-12 22c-1 2-10 16-7 18h5v1h1l-5 1-1 1 1 2 11-3 5-2v1h-1l-7 12-7 13-13 23-3 6 2 1 3-5v-2l1-2 3-4-2 4-2 3c0 2 2 2 2 1l2-3v-2l12-21v-1l-1 4-1 4c0 3-2 5-3 8l-4 9-2 4v-1c1-1-1-2-1-1l-2 4-2 1v1h2l-1 1H1v2a855 855 0 0 0 17 2h15l8-1v1h2l1-1h7l19-2h11c7 1 15 0 22-1h16l-4 1-26 1v1c10 0 20 1 29-1l15-3c3 0 5 1 8-1l-1-2Z"/><path fill="#fff" d="M110 167c-2-4-5-8-5-12l-3-15 1 15 4 7 2 5h1Z"/><path fill="#fff" d="M84 175c-4 4-8 9-10 15l-1-4 11-11Zm-11 55h-2v-4l2 4Zm1 3-4-1h4v1Zm-5-3h-3l2-6 1-1v-2l1-3v3l-1 9Zm-6 1a721 721 0 0 1 2-11l1-5 1 5a81 81 0 0 0-2 10l-2 1Zm3-68-1-2 2-6v4l-1 4Zm0-16v2h1v1l-2 4 1-7Zm3 33v-6l-1-11v-2l2-3-2 32 1-10Zm-1-28h1v2l-1 2v-4Zm1 55v2l-1 6-1-7 1-1a179 179 0 0 1 1-5v5Zm2 5-1-3v-7l1-3v13Zm0-18v1l-2 5v-1l1-7 1-3v5Zm44-71c-18-3-34 10-43 25v-3c7-11 18-22 30-25v-1c-12 3-23 12-31 24l-2-7a94 94 0 0 1 15-46c-7 7-11 17-13 26l-4 17c1-16 5-32 17-43v-1c-11 10-17 25-19 41l-5-8c-7-8-16-17-27-14 12-2 21 8 27 17l5 8-1 3c-5-13-14-24-30-23-1 0-1 0 0 0 18 0 25 14 30 28v14l1 1-1 3c-3-7-9-12-16-13 8 2 13 8 15 15v1c-2-4-6-7-10-9v-1l-2-1-9-1v-1 1l1 1-8 1-9 3 6-1-6 4c-1 1 0 2 1 1l10-6 12 1c6 4 11 9 14 15 1 1 2 0 1-1-2-6-8-11-13-14l-1-1-2-1h-1 4c8 4 13 12 15 22h1l-2 22-1 3c-3-9-8-17-16-22l8 10a490 490 0 0 0 6 13c-2-4-4-13-8-16l2 5a304 304 0 0 1 8 22l-2 20v1l-4-1v3h11a215 215 0 0 1 9 0h2v1c2-1-2-2-3-2h-1l-1-2 6-1v-2l-7 1-2-8 1-7 1 8h1l-1-25c2-13 12-21 22-29h-1a76 76 0 0 0 5-2l-1-1c-9 3-19 9-26 17l-1-28v-1c8-17 24-31 43-30Z"/></svg>